<svg xmlns="http://www.w3.org/2000/svg" viewBox="0 0 64 64" role="img" aria-label="Skyward Works logo">
  <defs>
    <linearGradient id="navy" x1="12" y1="56" x2="54" y2="10" gradientUnits="userSpaceOnUse">
      <stop offset="0" stop-color="#0B1224"/>
      <stop offset="1" stop-color="#0F172A"/>
    </linearGradient>
    <linearGradient id="cyan" x1="16" y1="52" x2="44" y2="16" gradientUnits="userSpaceOnUse">
      <stop offset="0" stop-color="#04ACEC" stop-opacity="0.95"/>
      <stop offset="1" stop-color="#04ACEC" stop-opacity="0.72"/>
    </linearGradient>
    <linearGradient id="green" x1="40" y1="22" x2="62" y2="6" gradientUnits="userSpaceOnUse">
      <stop offset="0" stop-color="#3CB44C"/>
      <stop offset="1" stop-color="#3CB44C" stop-opacity="0.82"/>
    </linearGradient>
    <filter id="glow" x="-40%" y="-40%" width="180%" height="180%">
      <feGaussianBlur stdDeviation="1.2" result="b"/>
      <feMerge>
        <feMergeNode in="b"/>
        <feMergeNode in="SourceGraphic"/>
      </feMerge>
    </filter>
  </defs>

  <!-- Stylized S -->
  <path fill="url(#navy)" opacity="0.98" d="M48.6 18.5c-2.7-7.1-10-12-19.2-12C18 6.5 10.5 12.7 10.5 21c0 7.2 5.2 11.3 14.3 13.2l4.2.9c6.4 1.3 9.4 3 9.4 6.3 0 3.9-3.8 6.7-9.8 6.7-6.3 0-10.6-2.3-12.4-7.2l-6.7 2.5c2.9 8.1 10.8 12.8 19.4 12.8 12 0 20.2-6.2 20.2-15.4 0-7-4.6-11.2-14.5-13.4l-4.5-1c-5.8-1.3-8.7-2.8-8.7-6 0-3.8 3.7-6.3 9-6.3 5.4 0 9 2.3 10.6 6.3l7.2-1.5z"/>

  <!-- Cyan diagonal slash -->
  <path filter="url(#glow)" fill="url(#cyan)" d="M17.2 52.6 46.8 15c1-1.3 2.7-1.6 4.1-.9 1.4.8 1.9 2.4 1.2 3.9L27.3 55.1c-.8 1.2-2.3 1.8-3.7 1.3-1.4-.5-2.2-1.9-2.1-3.8z"/>

  <!-- Green arrow tip -->
  <path fill="url(#green)" d="M50.7 9.4 61.6 6.1 58.2 16.9c-.4 1.3-1.7 2.2-3.1 2.1-1.4-.1-2.6-1.1-2.9-2.5l-.9-4-4.1 1.3c-1.3.4-2.7-.2-3.4-1.4-.7-1.2-.5-2.8.6-3.8 1.2-1 2.3-1.2 6.4.7z"/>
</svg>

